<mxfile host="Electron" modified="2023-04-28T17:14:50.294Z" agent="Mozilla/5.0 (X11; Linux x86_64) AppleWebKit/537.36 (KHTML, like Gecko) draw.io/21.2.1 Chrome/112.0.5615.87 Electron/24.1.2 Safari/537.36" etag="VBiWuxDbkXeb6IFV6mKm" version="21.2.1" type="device">
  <diagram name="Page-1" id="WpkoCbkD2GTZ16Bm78LT">
    <mxGraphModel dx="1183" dy="1275" grid="1" gridSize="10" guides="1" tooltips="1" connect="1" arrows="1" fold="1" page="0" pageScale="1" pageWidth="827" pageHeight="1169" math="0" shadow="0">
      <root>
        <mxCell id="0" />
        <mxCell id="1" parent="0" />
        <mxCell id="8QhmUvWr5Z0iVbSX7b2H-1" value="" style="rounded=1;whiteSpace=wrap;html=1;labelBackgroundColor=none;fillColor=#F45B69;strokeColor=none;fontColor=#E4FDE1;fillStyle=solid;" parent="1" vertex="1">
          <mxGeometry x="205" y="220" width="60" height="20" as="geometry" />
        </mxCell>
        <mxCell id="EW6EBJcZt1dbtNgd9fTZ-28" style="edgeStyle=orthogonalEdgeStyle;rounded=1;orthogonalLoop=1;jettySize=auto;html=1;entryX=0;entryY=0.5;entryDx=0;entryDy=0;strokeColor=#028090;fontColor=default;fillColor=#F45B69;labelBackgroundColor=none;" parent="1" source="EW6EBJcZt1dbtNgd9fTZ-17" target="EW6EBJcZt1dbtNgd9fTZ-21" edge="1">
          <mxGeometry relative="1" as="geometry">
            <Array as="points">
              <mxPoint x="105" y="400" />
              <mxPoint x="-40" y="400" />
              <mxPoint x="-40" y="545" />
            </Array>
          </mxGeometry>
        </mxCell>
        <mxCell id="EW6EBJcZt1dbtNgd9fTZ-17" value="" style="rounded=1;whiteSpace=wrap;html=1;strokeColor=#028090;fillColor=none;glass=0;arcSize=7;labelBackgroundColor=none;fontColor=#E4FDE1;" parent="1" vertex="1">
          <mxGeometry x="-65" y="240" width="340" height="130" as="geometry" />
        </mxCell>
        <mxCell id="5L4vMJ1TvrdWUOigA07q-71" style="edgeStyle=orthogonalEdgeStyle;rounded=1;orthogonalLoop=1;jettySize=auto;html=1;entryX=0.5;entryY=0;entryDx=0;entryDy=0;fontColor=default;labelBackgroundColor=none;strokeColor=#028090;" parent="1" source="5L4vMJ1TvrdWUOigA07q-70" target="Gud-aHtuFvEA1j-dhCJr-1" edge="1">
          <mxGeometry relative="1" as="geometry" />
        </mxCell>
        <mxCell id="5L4vMJ1TvrdWUOigA07q-70" value="" style="rounded=1;whiteSpace=wrap;html=1;labelBackgroundColor=none;fillColor=#F45B69;strokeColor=#028090;fontColor=#E4FDE1;" parent="1" vertex="1">
          <mxGeometry x="175" y="-410" width="370" height="60" as="geometry" />
        </mxCell>
        <mxCell id="Gud-aHtuFvEA1j-dhCJr-18" style="edgeStyle=orthogonalEdgeStyle;rounded=1;orthogonalLoop=1;jettySize=auto;html=1;entryX=0.5;entryY=0;entryDx=0;entryDy=0;fontColor=default;labelBackgroundColor=none;strokeColor=#028090;" parent="1" source="Gud-aHtuFvEA1j-dhCJr-1" target="Gud-aHtuFvEA1j-dhCJr-5" edge="1">
          <mxGeometry relative="1" as="geometry">
            <Array as="points">
              <mxPoint x="360" y="-160" />
              <mxPoint x="240" y="-160" />
            </Array>
          </mxGeometry>
        </mxCell>
        <mxCell id="Gud-aHtuFvEA1j-dhCJr-19" style="edgeStyle=orthogonalEdgeStyle;rounded=1;orthogonalLoop=1;jettySize=auto;html=1;fontColor=default;labelBackgroundColor=none;strokeColor=#028090;" parent="1" source="Gud-aHtuFvEA1j-dhCJr-1" target="Gud-aHtuFvEA1j-dhCJr-6" edge="1">
          <mxGeometry relative="1" as="geometry" />
        </mxCell>
        <mxCell id="Gud-aHtuFvEA1j-dhCJr-20" style="edgeStyle=orthogonalEdgeStyle;rounded=1;orthogonalLoop=1;jettySize=auto;html=1;entryX=0.5;entryY=0;entryDx=0;entryDy=0;fontColor=default;labelBackgroundColor=none;strokeColor=#028090;" parent="1" source="Gud-aHtuFvEA1j-dhCJr-1" target="Gud-aHtuFvEA1j-dhCJr-7" edge="1">
          <mxGeometry relative="1" as="geometry">
            <Array as="points">
              <mxPoint x="360" y="-160" />
              <mxPoint x="480" y="-160" />
            </Array>
          </mxGeometry>
        </mxCell>
        <mxCell id="Gud-aHtuFvEA1j-dhCJr-1" value="ptrn-binary" style="whiteSpace=wrap;html=1;aspect=fixed;labelBackgroundColor=none;rounded=1;fillColor=#F45B69;strokeColor=#028090;fontColor=#E4FDE1;" parent="1" vertex="1">
          <mxGeometry x="320" y="-320" width="80" height="80" as="geometry" />
        </mxCell>
        <mxCell id="Gud-aHtuFvEA1j-dhCJr-5" value="error lib" style="whiteSpace=wrap;html=1;aspect=fixed;rounded=1;labelBackgroundColor=none;fillColor=#F45B69;strokeColor=#028090;fontColor=#E4FDE1;" parent="1" vertex="1">
          <mxGeometry x="200" y="-120" width="80" height="80" as="geometry" />
        </mxCell>
        <mxCell id="e01ZX27fATnZA3EfENFA-1" style="edgeStyle=orthogonalEdgeStyle;rounded=1;orthogonalLoop=1;jettySize=auto;html=1;entryX=0.5;entryY=0;entryDx=0;entryDy=0;labelBackgroundColor=none;strokeColor=#028090;fontColor=default;" edge="1" parent="1" source="Gud-aHtuFvEA1j-dhCJr-6" target="EW6EBJcZt1dbtNgd9fTZ-2">
          <mxGeometry relative="1" as="geometry">
            <Array as="points">
              <mxPoint x="350" y="80" />
              <mxPoint x="105" y="80" />
            </Array>
          </mxGeometry>
        </mxCell>
        <mxCell id="Gud-aHtuFvEA1j-dhCJr-6" value="argv management" style="whiteSpace=wrap;html=1;aspect=fixed;rounded=1;labelBackgroundColor=none;fillColor=#F45B69;strokeColor=#028090;fontColor=#E4FDE1;" parent="1" vertex="1">
          <mxGeometry x="320" y="-120" width="80" height="80" as="geometry" />
        </mxCell>
        <mxCell id="Gud-aHtuFvEA1j-dhCJr-14" style="edgeStyle=orthogonalEdgeStyle;rounded=1;orthogonalLoop=1;jettySize=auto;html=1;entryX=0.5;entryY=0;entryDx=0;entryDy=0;fontColor=default;labelBackgroundColor=none;strokeColor=#028090;" parent="1" source="Gud-aHtuFvEA1j-dhCJr-7" target="Gud-aHtuFvEA1j-dhCJr-8" edge="1">
          <mxGeometry relative="1" as="geometry">
            <Array as="points">
              <mxPoint x="480" />
              <mxPoint x="420" />
            </Array>
          </mxGeometry>
        </mxCell>
        <mxCell id="Gud-aHtuFvEA1j-dhCJr-15" style="edgeStyle=orthogonalEdgeStyle;rounded=1;orthogonalLoop=1;jettySize=auto;html=1;entryX=0.5;entryY=0;entryDx=0;entryDy=0;fontColor=default;labelBackgroundColor=none;strokeColor=#028090;" parent="1" source="Gud-aHtuFvEA1j-dhCJr-7" target="Gud-aHtuFvEA1j-dhCJr-11" edge="1">
          <mxGeometry relative="1" as="geometry">
            <Array as="points">
              <mxPoint x="480" />
              <mxPoint x="520" />
            </Array>
          </mxGeometry>
        </mxCell>
        <mxCell id="Gud-aHtuFvEA1j-dhCJr-16" style="edgeStyle=orthogonalEdgeStyle;rounded=1;orthogonalLoop=1;jettySize=auto;html=1;fontColor=default;labelBackgroundColor=none;strokeColor=#028090;" parent="1" source="Gud-aHtuFvEA1j-dhCJr-7" target="Gud-aHtuFvEA1j-dhCJr-12" edge="1">
          <mxGeometry relative="1" as="geometry">
            <mxPoint x="480" as="targetPoint" />
            <Array as="points">
              <mxPoint x="480" />
              <mxPoint x="620" />
            </Array>
          </mxGeometry>
        </mxCell>
        <mxCell id="Gud-aHtuFvEA1j-dhCJr-17" style="edgeStyle=orthogonalEdgeStyle;rounded=1;orthogonalLoop=1;jettySize=auto;html=1;entryX=0.5;entryY=0;entryDx=0;entryDy=0;fontColor=default;labelBackgroundColor=none;strokeColor=#028090;" parent="1" source="Gud-aHtuFvEA1j-dhCJr-7" target="Gud-aHtuFvEA1j-dhCJr-13" edge="1">
          <mxGeometry relative="1" as="geometry">
            <Array as="points">
              <mxPoint x="480" />
              <mxPoint x="720" />
            </Array>
          </mxGeometry>
        </mxCell>
        <mxCell id="Gud-aHtuFvEA1j-dhCJr-7" value="patterns" style="whiteSpace=wrap;html=1;aspect=fixed;rounded=1;labelBackgroundColor=none;fillColor=#F45B69;strokeColor=#028090;fontColor=#E4FDE1;" parent="1" vertex="1">
          <mxGeometry x="440" y="-120" width="80" height="80" as="geometry" />
        </mxCell>
        <mxCell id="D-z8xl8KIapXq0l43_aG-4" style="edgeStyle=orthogonalEdgeStyle;rounded=1;orthogonalLoop=1;jettySize=auto;html=1;entryX=0.5;entryY=0;entryDx=0;entryDy=0;strokeColor=#028090;fontColor=default;fillColor=#F45B69;labelBackgroundColor=none;" parent="1" source="Gud-aHtuFvEA1j-dhCJr-8" target="D-z8xl8KIapXq0l43_aG-2" edge="1">
          <mxGeometry relative="1" as="geometry">
            <Array as="points">
              <mxPoint x="420" y="160" />
              <mxPoint x="380" y="160" />
            </Array>
          </mxGeometry>
        </mxCell>
        <mxCell id="Gud-aHtuFvEA1j-dhCJr-8" value="triangle" style="whiteSpace=wrap;html=1;aspect=fixed;rounded=1;labelBackgroundColor=none;fillColor=#F45B69;strokeColor=#028090;fontColor=#E4FDE1;" parent="1" vertex="1">
          <mxGeometry x="380" y="50" width="80" height="80" as="geometry" />
        </mxCell>
        <mxCell id="D-z8xl8KIapXq0l43_aG-42" style="edgeStyle=orthogonalEdgeStyle;rounded=1;orthogonalLoop=1;jettySize=auto;html=1;strokeColor=#028090;fontColor=default;fillColor=#F45B69;labelBackgroundColor=none;" parent="1" source="Gud-aHtuFvEA1j-dhCJr-11" target="D-z8xl8KIapXq0l43_aG-30" edge="1">
          <mxGeometry relative="1" as="geometry">
            <Array as="points">
              <mxPoint x="520" y="160" />
              <mxPoint x="542" y="160" />
            </Array>
          </mxGeometry>
        </mxCell>
        <mxCell id="Gud-aHtuFvEA1j-dhCJr-11" value="square" style="whiteSpace=wrap;html=1;aspect=fixed;rounded=1;labelBackgroundColor=none;fillColor=#F45B69;strokeColor=#028090;fontColor=#E4FDE1;" parent="1" vertex="1">
          <mxGeometry x="480" y="50" width="80" height="80" as="geometry" />
        </mxCell>
        <mxCell id="D-z8xl8KIapXq0l43_aG-66" style="edgeStyle=orthogonalEdgeStyle;rounded=1;orthogonalLoop=1;jettySize=auto;html=1;strokeColor=#028090;fontColor=default;fillColor=#F45B69;labelBackgroundColor=none;" parent="1" source="Gud-aHtuFvEA1j-dhCJr-12" target="D-z8xl8KIapXq0l43_aG-56" edge="1">
          <mxGeometry relative="1" as="geometry">
            <Array as="points">
              <mxPoint x="620" y="160" />
              <mxPoint x="710" y="160" />
            </Array>
          </mxGeometry>
        </mxCell>
        <mxCell id="Gud-aHtuFvEA1j-dhCJr-12" value="pentagon" style="whiteSpace=wrap;html=1;aspect=fixed;rounded=1;labelBackgroundColor=none;fillColor=#F45B69;strokeColor=#028090;fontColor=#E4FDE1;" parent="1" vertex="1">
          <mxGeometry x="580" y="50" width="80" height="80" as="geometry" />
        </mxCell>
        <mxCell id="D-z8xl8KIapXq0l43_aG-67" style="edgeStyle=orthogonalEdgeStyle;rounded=1;orthogonalLoop=1;jettySize=auto;html=1;strokeColor=#028090;fontColor=default;fillColor=#F45B69;labelBackgroundColor=none;" parent="1" source="Gud-aHtuFvEA1j-dhCJr-13" target="D-z8xl8KIapXq0l43_aG-64" edge="1">
          <mxGeometry relative="1" as="geometry">
            <Array as="points">
              <mxPoint x="720" y="160" />
              <mxPoint x="870" y="160" />
            </Array>
          </mxGeometry>
        </mxCell>
        <mxCell id="Gud-aHtuFvEA1j-dhCJr-13" value="hexagon" style="whiteSpace=wrap;html=1;aspect=fixed;rounded=1;labelBackgroundColor=none;fillColor=#F45B69;strokeColor=#028090;fontColor=#E4FDE1;" parent="1" vertex="1">
          <mxGeometry x="680" y="50" width="80" height="80" as="geometry" />
        </mxCell>
        <mxCell id="5L4vMJ1TvrdWUOigA07q-2" style="edgeStyle=orthogonalEdgeStyle;rounded=1;orthogonalLoop=1;jettySize=auto;html=1;entryX=1.007;entryY=0.448;entryDx=0;entryDy=0;entryPerimeter=0;labelBackgroundColor=none;fontColor=default;strokeColor=#028090;" parent="1" source="Gud-aHtuFvEA1j-dhCJr-51" target="5L4vMJ1TvrdWUOigA07q-1" edge="1">
          <mxGeometry relative="1" as="geometry">
            <Array as="points">
              <mxPoint x="240" y="40" />
              <mxPoint x="83" y="40" />
            </Array>
          </mxGeometry>
        </mxCell>
        <mxCell id="Gud-aHtuFvEA1j-dhCJr-51" value="&lt;font color=&quot;#ff0000&quot; style=&quot;font-size: 25px;&quot;&gt;?&lt;/font&gt;" style="text;html=1;align=center;verticalAlign=middle;resizable=0;points=[];autosize=1;strokeColor=none;fillColor=none;rounded=1;labelBackgroundColor=none;fontColor=#E4FDE1;" parent="1" vertex="1">
          <mxGeometry x="220" y="-80" width="40" height="40" as="geometry" />
        </mxCell>
        <mxCell id="5L4vMJ1TvrdWUOigA07q-1" value="&lt;font color=&quot;#ffffff&quot; style=&quot;font-size: 13px;&quot;&gt;Debugging will be a lot easier if&lt;br&gt;we specify what type of error are there.&lt;br&gt;Testing can be made easy with error output.&lt;/font&gt;" style="text;html=1;align=right;verticalAlign=middle;resizable=0;points=[];autosize=1;strokeColor=none;fillColor=none;labelBackgroundColor=none;rounded=1;fontColor=#E4FDE1;" parent="1" vertex="1">
          <mxGeometry x="-200" y="13" width="280" height="60" as="geometry" />
        </mxCell>
        <mxCell id="5L4vMJ1TvrdWUOigA07q-66" value="./ptrn" style="rounded=1;whiteSpace=wrap;html=1;labelBackgroundColor=none;fillColor=#F45B69;strokeColor=#028090;fontColor=#E4FDE1;" parent="1" vertex="1">
          <mxGeometry x="185" y="-400" width="80" height="40" as="geometry" />
        </mxCell>
        <mxCell id="5L4vMJ1TvrdWUOigA07q-67" value="shape" style="rounded=1;whiteSpace=wrap;html=1;labelBackgroundColor=none;fillColor=#F45B69;strokeColor=#028090;fontColor=#E4FDE1;" parent="1" vertex="1">
          <mxGeometry x="275" y="-400" width="80" height="40" as="geometry" />
        </mxCell>
        <mxCell id="5L4vMJ1TvrdWUOigA07q-68" value="style" style="rounded=1;whiteSpace=wrap;html=1;labelBackgroundColor=none;fillColor=#F45B69;strokeColor=#028090;fontColor=#E4FDE1;" parent="1" vertex="1">
          <mxGeometry x="365" y="-400" width="80" height="40" as="geometry" />
        </mxCell>
        <mxCell id="5L4vMJ1TvrdWUOigA07q-69" value="line" style="rounded=1;whiteSpace=wrap;html=1;labelBackgroundColor=none;fillColor=#F45B69;strokeColor=#028090;fontColor=#E4FDE1;" parent="1" vertex="1">
          <mxGeometry x="455" y="-400" width="80" height="40" as="geometry" />
        </mxCell>
        <mxCell id="D-z8xl8KIapXq0l43_aG-7" style="edgeStyle=orthogonalEdgeStyle;rounded=1;orthogonalLoop=1;jettySize=auto;html=1;entryX=0.5;entryY=0;entryDx=0;entryDy=0;strokeColor=#028090;fontColor=default;fillColor=#F45B69;labelBackgroundColor=none;" parent="1" source="D-z8xl8KIapXq0l43_aG-2" target="D-z8xl8KIapXq0l43_aG-6" edge="1">
          <mxGeometry relative="1" as="geometry">
            <Array as="points">
              <mxPoint x="440" y="240" />
              <mxPoint x="440" y="360" />
              <mxPoint x="380" y="360" />
            </Array>
          </mxGeometry>
        </mxCell>
        <mxCell id="D-z8xl8KIapXq0l43_aG-10" value="hollow" style="edgeLabel;html=1;align=center;verticalAlign=middle;resizable=0;points=[];fontColor=#E4FDE1;rounded=1;labelBackgroundColor=none;" parent="D-z8xl8KIapXq0l43_aG-7" vertex="1" connectable="0">
          <mxGeometry x="-0.3026" y="-2" relative="1" as="geometry">
            <mxPoint as="offset" />
          </mxGeometry>
        </mxCell>
        <mxCell id="D-z8xl8KIapXq0l43_aG-8" style="edgeStyle=orthogonalEdgeStyle;rounded=1;orthogonalLoop=1;jettySize=auto;html=1;entryX=0.5;entryY=0;entryDx=0;entryDy=0;strokeColor=#028090;fontColor=default;fillColor=#F45B69;labelBackgroundColor=none;" parent="1" source="D-z8xl8KIapXq0l43_aG-2" target="D-z8xl8KIapXq0l43_aG-6" edge="1">
          <mxGeometry relative="1" as="geometry" />
        </mxCell>
        <mxCell id="D-z8xl8KIapXq0l43_aG-12" value="default" style="edgeLabel;html=1;align=center;verticalAlign=middle;resizable=0;points=[];fontColor=#E4FDE1;rounded=1;labelBackgroundColor=none;" parent="D-z8xl8KIapXq0l43_aG-8" vertex="1" connectable="0">
          <mxGeometry x="-0.1171" relative="1" as="geometry">
            <mxPoint as="offset" />
          </mxGeometry>
        </mxCell>
        <mxCell id="D-z8xl8KIapXq0l43_aG-9" style="edgeStyle=orthogonalEdgeStyle;rounded=1;orthogonalLoop=1;jettySize=auto;html=1;entryX=0.5;entryY=0;entryDx=0;entryDy=0;strokeColor=#028090;fontColor=default;fillColor=#F45B69;labelBackgroundColor=none;" parent="1" source="D-z8xl8KIapXq0l43_aG-2" target="D-z8xl8KIapXq0l43_aG-6" edge="1">
          <mxGeometry relative="1" as="geometry">
            <Array as="points">
              <mxPoint x="320" y="240" />
              <mxPoint x="320" y="360" />
              <mxPoint x="380" y="360" />
            </Array>
          </mxGeometry>
        </mxCell>
        <mxCell id="D-z8xl8KIapXq0l43_aG-13" value="colour" style="edgeLabel;html=1;align=center;verticalAlign=middle;resizable=0;points=[];fontColor=#E4FDE1;rounded=1;labelBackgroundColor=none;" parent="D-z8xl8KIapXq0l43_aG-9" vertex="1" connectable="0">
          <mxGeometry x="-0.2976" y="-2" relative="1" as="geometry">
            <mxPoint as="offset" />
          </mxGeometry>
        </mxCell>
        <mxCell id="D-z8xl8KIapXq0l43_aG-2" value="-c&lt;br&gt;-h" style="rhombus;whiteSpace=wrap;html=1;labelBackgroundColor=none;fillColor=#F45B69;strokeColor=#028090;fontColor=#E4FDE1;rounded=1;" parent="1" vertex="1">
          <mxGeometry x="340" y="200" width="80" height="80" as="geometry" />
        </mxCell>
        <mxCell id="D-z8xl8KIapXq0l43_aG-18" style="edgeStyle=orthogonalEdgeStyle;rounded=1;orthogonalLoop=1;jettySize=auto;html=1;entryX=0.5;entryY=0;entryDx=0;entryDy=0;strokeColor=#028090;fontColor=default;fillColor=#F45B69;labelBackgroundColor=none;" parent="1" source="D-z8xl8KIapXq0l43_aG-6" target="D-z8xl8KIapXq0l43_aG-15" edge="1">
          <mxGeometry relative="1" as="geometry" />
        </mxCell>
        <mxCell id="D-z8xl8KIapXq0l43_aG-22" value="default" style="edgeLabel;html=1;align=center;verticalAlign=middle;resizable=0;points=[];fontColor=#E4FDE1;rounded=1;labelBackgroundColor=none;" parent="D-z8xl8KIapXq0l43_aG-18" vertex="1" connectable="0">
          <mxGeometry x="-0.3095" y="-2" relative="1" as="geometry">
            <mxPoint as="offset" />
          </mxGeometry>
        </mxCell>
        <mxCell id="D-z8xl8KIapXq0l43_aG-19" style="edgeStyle=orthogonalEdgeStyle;rounded=1;orthogonalLoop=1;jettySize=auto;html=1;entryX=0.5;entryY=0;entryDx=0;entryDy=0;strokeColor=#028090;fontColor=default;fillColor=#F45B69;labelBackgroundColor=none;" parent="1" source="D-z8xl8KIapXq0l43_aG-6" target="D-z8xl8KIapXq0l43_aG-16" edge="1">
          <mxGeometry relative="1" as="geometry" />
        </mxCell>
        <mxCell id="D-z8xl8KIapXq0l43_aG-21" value="vertical" style="edgeLabel;html=1;align=center;verticalAlign=middle;resizable=0;points=[];fontColor=#E4FDE1;rounded=1;labelBackgroundColor=none;" parent="D-z8xl8KIapXq0l43_aG-19" vertex="1" connectable="0">
          <mxGeometry x="0.2097" y="-2" relative="1" as="geometry">
            <mxPoint x="2" y="19" as="offset" />
          </mxGeometry>
        </mxCell>
        <mxCell id="D-z8xl8KIapXq0l43_aG-20" style="edgeStyle=orthogonalEdgeStyle;rounded=1;orthogonalLoop=1;jettySize=auto;html=1;entryX=0.5;entryY=0;entryDx=0;entryDy=0;strokeColor=#028090;fontColor=default;fillColor=#F45B69;labelBackgroundColor=none;" parent="1" source="D-z8xl8KIapXq0l43_aG-6" target="D-z8xl8KIapXq0l43_aG-17" edge="1">
          <mxGeometry relative="1" as="geometry" />
        </mxCell>
        <mxCell id="D-z8xl8KIapXq0l43_aG-23" value="inverted" style="edgeLabel;html=1;align=center;verticalAlign=middle;resizable=0;points=[];fontColor=#E4FDE1;rounded=1;labelBackgroundColor=none;" parent="D-z8xl8KIapXq0l43_aG-20" vertex="1" connectable="0">
          <mxGeometry x="0.4685" y="-2" relative="1" as="geometry">
            <mxPoint as="offset" />
          </mxGeometry>
        </mxCell>
        <mxCell id="D-z8xl8KIapXq0l43_aG-6" value="" style="rhombus;whiteSpace=wrap;html=1;labelBackgroundColor=none;fillColor=#F45B69;strokeColor=#028090;fontColor=#E4FDE1;rounded=1;" parent="1" vertex="1">
          <mxGeometry x="340" y="380" width="80" height="80" as="geometry" />
        </mxCell>
        <mxCell id="D-z8xl8KIapXq0l43_aG-15" value="t_default" style="rounded=1;whiteSpace=wrap;html=1;labelBackgroundColor=none;fillColor=#F45B69;strokeColor=#028090;fontColor=#E4FDE1;" parent="1" vertex="1">
          <mxGeometry x="340" y="520" width="80" height="40" as="geometry" />
        </mxCell>
        <mxCell id="D-z8xl8KIapXq0l43_aG-16" value="t_vertical" style="rounded=1;whiteSpace=wrap;html=1;labelBackgroundColor=none;fillColor=#F45B69;strokeColor=#028090;fontColor=#E4FDE1;" parent="1" vertex="1">
          <mxGeometry x="430" y="520" width="80" height="40" as="geometry" />
        </mxCell>
        <mxCell id="D-z8xl8KIapXq0l43_aG-17" value="t_inverted" style="rounded=1;whiteSpace=wrap;html=1;labelBackgroundColor=none;fillColor=#F45B69;strokeColor=#028090;fontColor=#E4FDE1;" parent="1" vertex="1">
          <mxGeometry x="250" y="520" width="80" height="40" as="geometry" />
        </mxCell>
        <mxCell id="D-z8xl8KIapXq0l43_aG-24" style="edgeStyle=orthogonalEdgeStyle;rounded=1;orthogonalLoop=1;jettySize=auto;html=1;entryX=0.5;entryY=0;entryDx=0;entryDy=0;strokeColor=#028090;fontColor=default;fillColor=#F45B69;labelBackgroundColor=none;" parent="1" source="D-z8xl8KIapXq0l43_aG-30" edge="1">
          <mxGeometry relative="1" as="geometry">
            <Array as="points">
              <mxPoint x="602" y="240" />
              <mxPoint x="602" y="360" />
              <mxPoint x="542" y="360" />
            </Array>
            <mxPoint x="542" y="380" as="targetPoint" />
          </mxGeometry>
        </mxCell>
        <mxCell id="D-z8xl8KIapXq0l43_aG-25" value="hollow" style="edgeLabel;html=1;align=center;verticalAlign=middle;resizable=0;points=[];fontColor=#E4FDE1;rounded=1;labelBackgroundColor=none;" parent="D-z8xl8KIapXq0l43_aG-24" vertex="1" connectable="0">
          <mxGeometry x="-0.3026" y="-2" relative="1" as="geometry">
            <mxPoint as="offset" />
          </mxGeometry>
        </mxCell>
        <mxCell id="D-z8xl8KIapXq0l43_aG-26" style="edgeStyle=orthogonalEdgeStyle;rounded=1;orthogonalLoop=1;jettySize=auto;html=1;entryX=0.5;entryY=0;entryDx=0;entryDy=0;strokeColor=#028090;fontColor=default;fillColor=#F45B69;labelBackgroundColor=none;" parent="1" source="D-z8xl8KIapXq0l43_aG-30" edge="1">
          <mxGeometry relative="1" as="geometry">
            <mxPoint x="542" y="380" as="targetPoint" />
          </mxGeometry>
        </mxCell>
        <mxCell id="D-z8xl8KIapXq0l43_aG-27" value="default" style="edgeLabel;html=1;align=center;verticalAlign=middle;resizable=0;points=[];fontColor=#E4FDE1;rounded=1;labelBackgroundColor=none;" parent="D-z8xl8KIapXq0l43_aG-26" vertex="1" connectable="0">
          <mxGeometry x="-0.1171" relative="1" as="geometry">
            <mxPoint as="offset" />
          </mxGeometry>
        </mxCell>
        <mxCell id="D-z8xl8KIapXq0l43_aG-28" style="edgeStyle=orthogonalEdgeStyle;rounded=1;orthogonalLoop=1;jettySize=auto;html=1;entryX=0.5;entryY=0;entryDx=0;entryDy=0;strokeColor=#028090;fontColor=default;fillColor=#F45B69;labelBackgroundColor=none;" parent="1" source="D-z8xl8KIapXq0l43_aG-30" edge="1">
          <mxGeometry relative="1" as="geometry">
            <Array as="points">
              <mxPoint x="482" y="240" />
              <mxPoint x="482" y="360" />
              <mxPoint x="542" y="360" />
            </Array>
            <mxPoint x="542" y="380" as="targetPoint" />
          </mxGeometry>
        </mxCell>
        <mxCell id="D-z8xl8KIapXq0l43_aG-29" value="colour" style="edgeLabel;html=1;align=center;verticalAlign=middle;resizable=0;points=[];fontColor=#E4FDE1;rounded=1;labelBackgroundColor=none;" parent="D-z8xl8KIapXq0l43_aG-28" vertex="1" connectable="0">
          <mxGeometry x="-0.2976" y="-2" relative="1" as="geometry">
            <mxPoint as="offset" />
          </mxGeometry>
        </mxCell>
        <mxCell id="D-z8xl8KIapXq0l43_aG-30" value="" style="rhombus;whiteSpace=wrap;html=1;labelBackgroundColor=none;fillColor=#F45B69;strokeColor=#028090;fontColor=#E4FDE1;rounded=1;" parent="1" vertex="1">
          <mxGeometry x="502" y="200" width="80" height="80" as="geometry" />
        </mxCell>
        <mxCell id="D-z8xl8KIapXq0l43_aG-38" value="s_default" style="rounded=1;whiteSpace=wrap;html=1;labelBackgroundColor=none;fillColor=#F45B69;strokeColor=#028090;fontColor=#E4FDE1;" parent="1" vertex="1">
          <mxGeometry x="502" y="380" width="80" height="40" as="geometry" />
        </mxCell>
        <mxCell id="D-z8xl8KIapXq0l43_aG-50" style="edgeStyle=orthogonalEdgeStyle;rounded=1;orthogonalLoop=1;jettySize=auto;html=1;entryX=0.5;entryY=0;entryDx=0;entryDy=0;strokeColor=#028090;fontColor=default;fillColor=#F45B69;labelBackgroundColor=none;" parent="1" source="D-z8xl8KIapXq0l43_aG-56" edge="1">
          <mxGeometry relative="1" as="geometry">
            <Array as="points">
              <mxPoint x="770" y="240" />
              <mxPoint x="770" y="360" />
              <mxPoint x="710" y="360" />
            </Array>
            <mxPoint x="710" y="380" as="targetPoint" />
          </mxGeometry>
        </mxCell>
        <mxCell id="D-z8xl8KIapXq0l43_aG-51" value="hollow" style="edgeLabel;html=1;align=center;verticalAlign=middle;resizable=0;points=[];fontColor=#E4FDE1;rounded=1;labelBackgroundColor=none;" parent="D-z8xl8KIapXq0l43_aG-50" vertex="1" connectable="0">
          <mxGeometry x="-0.3026" y="-2" relative="1" as="geometry">
            <mxPoint as="offset" />
          </mxGeometry>
        </mxCell>
        <mxCell id="D-z8xl8KIapXq0l43_aG-52" style="edgeStyle=orthogonalEdgeStyle;rounded=1;orthogonalLoop=1;jettySize=auto;html=1;entryX=0.5;entryY=0;entryDx=0;entryDy=0;strokeColor=#028090;fontColor=default;fillColor=#F45B69;labelBackgroundColor=none;" parent="1" source="D-z8xl8KIapXq0l43_aG-56" edge="1">
          <mxGeometry relative="1" as="geometry">
            <mxPoint x="710" y="380" as="targetPoint" />
          </mxGeometry>
        </mxCell>
        <mxCell id="D-z8xl8KIapXq0l43_aG-53" value="default" style="edgeLabel;html=1;align=center;verticalAlign=middle;resizable=0;points=[];fontColor=#E4FDE1;rounded=1;labelBackgroundColor=none;" parent="D-z8xl8KIapXq0l43_aG-52" vertex="1" connectable="0">
          <mxGeometry x="-0.1171" relative="1" as="geometry">
            <mxPoint as="offset" />
          </mxGeometry>
        </mxCell>
        <mxCell id="D-z8xl8KIapXq0l43_aG-54" style="edgeStyle=orthogonalEdgeStyle;rounded=1;orthogonalLoop=1;jettySize=auto;html=1;entryX=0.5;entryY=0;entryDx=0;entryDy=0;strokeColor=#028090;fontColor=default;fillColor=#F45B69;labelBackgroundColor=none;" parent="1" source="D-z8xl8KIapXq0l43_aG-56" edge="1">
          <mxGeometry relative="1" as="geometry">
            <Array as="points">
              <mxPoint x="650" y="240" />
              <mxPoint x="650" y="360" />
              <mxPoint x="710" y="360" />
            </Array>
            <mxPoint x="710" y="380" as="targetPoint" />
          </mxGeometry>
        </mxCell>
        <mxCell id="D-z8xl8KIapXq0l43_aG-55" value="colour" style="edgeLabel;html=1;align=center;verticalAlign=middle;resizable=0;points=[];fontColor=#E4FDE1;rounded=1;labelBackgroundColor=none;" parent="D-z8xl8KIapXq0l43_aG-54" vertex="1" connectable="0">
          <mxGeometry x="-0.2976" y="-2" relative="1" as="geometry">
            <mxPoint as="offset" />
          </mxGeometry>
        </mxCell>
        <mxCell id="D-z8xl8KIapXq0l43_aG-56" value="" style="rhombus;whiteSpace=wrap;html=1;labelBackgroundColor=none;fillColor=#F45B69;strokeColor=#028090;fontColor=#E4FDE1;rounded=1;" parent="1" vertex="1">
          <mxGeometry x="670" y="200" width="80" height="80" as="geometry" />
        </mxCell>
        <mxCell id="D-z8xl8KIapXq0l43_aG-58" style="edgeStyle=orthogonalEdgeStyle;rounded=1;orthogonalLoop=1;jettySize=auto;html=1;entryX=0.5;entryY=0;entryDx=0;entryDy=0;strokeColor=#028090;fontColor=default;fillColor=#F45B69;labelBackgroundColor=none;" parent="1" source="D-z8xl8KIapXq0l43_aG-64" edge="1">
          <mxGeometry relative="1" as="geometry">
            <Array as="points">
              <mxPoint x="930" y="240" />
              <mxPoint x="930" y="360" />
              <mxPoint x="870" y="360" />
            </Array>
            <mxPoint x="870" y="380" as="targetPoint" />
          </mxGeometry>
        </mxCell>
        <mxCell id="D-z8xl8KIapXq0l43_aG-59" value="hollow" style="edgeLabel;html=1;align=center;verticalAlign=middle;resizable=0;points=[];fontColor=#E4FDE1;rounded=1;labelBackgroundColor=none;" parent="D-z8xl8KIapXq0l43_aG-58" vertex="1" connectable="0">
          <mxGeometry x="-0.3026" y="-2" relative="1" as="geometry">
            <mxPoint as="offset" />
          </mxGeometry>
        </mxCell>
        <mxCell id="D-z8xl8KIapXq0l43_aG-60" style="edgeStyle=orthogonalEdgeStyle;rounded=1;orthogonalLoop=1;jettySize=auto;html=1;entryX=0.5;entryY=0;entryDx=0;entryDy=0;strokeColor=#028090;fontColor=default;fillColor=#F45B69;labelBackgroundColor=none;" parent="1" source="D-z8xl8KIapXq0l43_aG-64" edge="1">
          <mxGeometry relative="1" as="geometry">
            <mxPoint x="870" y="380" as="targetPoint" />
          </mxGeometry>
        </mxCell>
        <mxCell id="D-z8xl8KIapXq0l43_aG-61" value="default" style="edgeLabel;html=1;align=center;verticalAlign=middle;resizable=0;points=[];fontColor=#E4FDE1;rounded=1;labelBackgroundColor=none;" parent="D-z8xl8KIapXq0l43_aG-60" vertex="1" connectable="0">
          <mxGeometry x="-0.1171" relative="1" as="geometry">
            <mxPoint as="offset" />
          </mxGeometry>
        </mxCell>
        <mxCell id="D-z8xl8KIapXq0l43_aG-62" style="edgeStyle=orthogonalEdgeStyle;rounded=1;orthogonalLoop=1;jettySize=auto;html=1;entryX=0.5;entryY=0;entryDx=0;entryDy=0;strokeColor=#028090;fontColor=default;fillColor=#F45B69;labelBackgroundColor=none;" parent="1" source="D-z8xl8KIapXq0l43_aG-64" edge="1">
          <mxGeometry relative="1" as="geometry">
            <Array as="points">
              <mxPoint x="810" y="240" />
              <mxPoint x="810" y="360" />
              <mxPoint x="870" y="360" />
            </Array>
            <mxPoint x="870" y="380" as="targetPoint" />
          </mxGeometry>
        </mxCell>
        <mxCell id="D-z8xl8KIapXq0l43_aG-63" value="colour" style="edgeLabel;html=1;align=center;verticalAlign=middle;resizable=0;points=[];fontColor=#E4FDE1;rounded=1;labelBackgroundColor=none;" parent="D-z8xl8KIapXq0l43_aG-62" vertex="1" connectable="0">
          <mxGeometry x="-0.2976" y="-2" relative="1" as="geometry">
            <mxPoint as="offset" />
          </mxGeometry>
        </mxCell>
        <mxCell id="D-z8xl8KIapXq0l43_aG-64" value="" style="rhombus;whiteSpace=wrap;html=1;labelBackgroundColor=none;fillColor=#F45B69;strokeColor=#028090;fontColor=#E4FDE1;rounded=1;" parent="1" vertex="1">
          <mxGeometry x="830" y="200" width="80" height="80" as="geometry" />
        </mxCell>
        <mxCell id="D-z8xl8KIapXq0l43_aG-65" value="h_default" style="rounded=1;whiteSpace=wrap;html=1;labelBackgroundColor=none;fillColor=#F45B69;strokeColor=#028090;fontColor=#E4FDE1;" parent="1" vertex="1">
          <mxGeometry x="830" y="380" width="80" height="40" as="geometry" />
        </mxCell>
        <mxCell id="D-z8xl8KIapXq0l43_aG-75" style="edgeStyle=orthogonalEdgeStyle;rounded=1;orthogonalLoop=1;jettySize=auto;html=1;entryX=0.5;entryY=0;entryDx=0;entryDy=0;strokeColor=#028090;fontColor=default;fillColor=#F45B69;labelBackgroundColor=none;" parent="1" source="D-z8xl8KIapXq0l43_aG-72" target="D-z8xl8KIapXq0l43_aG-74" edge="1">
          <mxGeometry relative="1" as="geometry">
            <Array as="points">
              <mxPoint x="660" y="420" />
            </Array>
          </mxGeometry>
        </mxCell>
        <mxCell id="D-z8xl8KIapXq0l43_aG-80" value="inverted" style="edgeLabel;html=1;align=center;verticalAlign=middle;resizable=0;points=[];fontColor=#E4FDE1;rounded=1;labelBackgroundColor=none;" parent="D-z8xl8KIapXq0l43_aG-75" vertex="1" connectable="0">
          <mxGeometry x="-0.037" y="-1" relative="1" as="geometry">
            <mxPoint x="1" y="17" as="offset" />
          </mxGeometry>
        </mxCell>
        <mxCell id="D-z8xl8KIapXq0l43_aG-76" style="edgeStyle=orthogonalEdgeStyle;rounded=1;orthogonalLoop=1;jettySize=auto;html=1;entryX=0.5;entryY=0;entryDx=0;entryDy=0;strokeColor=#028090;fontColor=default;fillColor=#F45B69;labelBackgroundColor=none;" parent="1" source="D-z8xl8KIapXq0l43_aG-72" target="D-z8xl8KIapXq0l43_aG-73" edge="1">
          <mxGeometry relative="1" as="geometry">
            <Array as="points">
              <mxPoint x="760" y="420" />
            </Array>
          </mxGeometry>
        </mxCell>
        <mxCell id="D-z8xl8KIapXq0l43_aG-79" value="default" style="edgeLabel;html=1;align=center;verticalAlign=middle;resizable=0;points=[];fontColor=#E4FDE1;rounded=1;labelBackgroundColor=none;" parent="D-z8xl8KIapXq0l43_aG-76" vertex="1" connectable="0">
          <mxGeometry x="-0.1498" y="2" relative="1" as="geometry">
            <mxPoint x="-2" y="23" as="offset" />
          </mxGeometry>
        </mxCell>
        <mxCell id="D-z8xl8KIapXq0l43_aG-72" value="" style="rhombus;whiteSpace=wrap;html=1;labelBackgroundColor=none;fillColor=#F45B69;strokeColor=#028090;fontColor=#E4FDE1;rounded=1;" parent="1" vertex="1">
          <mxGeometry x="670" y="380" width="80" height="80" as="geometry" />
        </mxCell>
        <mxCell id="D-z8xl8KIapXq0l43_aG-73" value="p_default" style="rounded=1;whiteSpace=wrap;html=1;labelBackgroundColor=none;fillColor=#F45B69;strokeColor=#028090;fontColor=#E4FDE1;" parent="1" vertex="1">
          <mxGeometry x="720" y="520" width="80" height="40" as="geometry" />
        </mxCell>
        <mxCell id="D-z8xl8KIapXq0l43_aG-74" value="p_inverted" style="rounded=1;whiteSpace=wrap;html=1;labelBackgroundColor=none;fillColor=#F45B69;strokeColor=#028090;fontColor=#E4FDE1;" parent="1" vertex="1">
          <mxGeometry x="620" y="520" width="80" height="40" as="geometry" />
        </mxCell>
        <mxCell id="EW6EBJcZt1dbtNgd9fTZ-7" style="edgeStyle=orthogonalEdgeStyle;rounded=1;orthogonalLoop=1;jettySize=auto;html=1;strokeColor=#028090;fontColor=default;fillColor=#F45B69;labelBackgroundColor=none;" parent="1" source="EW6EBJcZt1dbtNgd9fTZ-2" target="EW6EBJcZt1dbtNgd9fTZ-3" edge="1">
          <mxGeometry relative="1" as="geometry">
            <Array as="points">
              <mxPoint x="105" y="260" />
              <mxPoint x="-15" y="260" />
            </Array>
          </mxGeometry>
        </mxCell>
        <mxCell id="EW6EBJcZt1dbtNgd9fTZ-9" style="edgeStyle=orthogonalEdgeStyle;rounded=1;orthogonalLoop=1;jettySize=auto;html=1;strokeColor=#028090;fontColor=default;fillColor=#F45B69;labelBackgroundColor=none;" parent="1" source="EW6EBJcZt1dbtNgd9fTZ-2" target="EW6EBJcZt1dbtNgd9fTZ-5" edge="1">
          <mxGeometry relative="1" as="geometry">
            <Array as="points">
              <mxPoint x="105" y="260" />
              <mxPoint x="145" y="260" />
            </Array>
          </mxGeometry>
        </mxCell>
        <mxCell id="EW6EBJcZt1dbtNgd9fTZ-10" style="edgeStyle=orthogonalEdgeStyle;rounded=1;orthogonalLoop=1;jettySize=auto;html=1;strokeColor=#028090;fontColor=default;fillColor=#F45B69;labelBackgroundColor=none;" parent="1" source="EW6EBJcZt1dbtNgd9fTZ-2" target="EW6EBJcZt1dbtNgd9fTZ-6" edge="1">
          <mxGeometry relative="1" as="geometry">
            <Array as="points">
              <mxPoint x="105" y="260" />
              <mxPoint x="225" y="260" />
            </Array>
          </mxGeometry>
        </mxCell>
        <mxCell id="EW6EBJcZt1dbtNgd9fTZ-11" style="edgeStyle=orthogonalEdgeStyle;rounded=1;orthogonalLoop=1;jettySize=auto;html=1;strokeColor=#028090;fontColor=default;fillColor=#F45B69;labelBackgroundColor=none;" parent="1" source="EW6EBJcZt1dbtNgd9fTZ-2" target="EW6EBJcZt1dbtNgd9fTZ-4" edge="1">
          <mxGeometry relative="1" as="geometry">
            <Array as="points">
              <mxPoint x="105" y="260" />
              <mxPoint x="65" y="260" />
            </Array>
          </mxGeometry>
        </mxCell>
        <mxCell id="EW6EBJcZt1dbtNgd9fTZ-2" value="arg manager" style="rounded=1;whiteSpace=wrap;html=1;strokeColor=#028090;fontColor=#E4FDE1;fillColor=#F45B69;labelBackgroundColor=none;" parent="1" vertex="1">
          <mxGeometry x="45" y="120" width="120" height="60" as="geometry" />
        </mxCell>
        <mxCell id="EW6EBJcZt1dbtNgd9fTZ-3" value="shape()" style="rhombus;whiteSpace=wrap;html=1;rounded=1;strokeColor=#028090;fontColor=#E4FDE1;fillColor=#F45B69;labelBackgroundColor=none;" parent="1" vertex="1">
          <mxGeometry x="-55" y="280" width="80" height="80" as="geometry" />
        </mxCell>
        <mxCell id="EW6EBJcZt1dbtNgd9fTZ-4" value="style()" style="rhombus;whiteSpace=wrap;html=1;rounded=1;strokeColor=#028090;fontColor=#E4FDE1;fillColor=#F45B69;labelBackgroundColor=none;" parent="1" vertex="1">
          <mxGeometry x="25" y="280" width="80" height="80" as="geometry" />
        </mxCell>
        <mxCell id="EW6EBJcZt1dbtNgd9fTZ-5" value="options()" style="rhombus;whiteSpace=wrap;html=1;rounded=1;strokeColor=#028090;fontColor=#E4FDE1;fillColor=#F45B69;labelBackgroundColor=none;" parent="1" vertex="1">
          <mxGeometry x="105" y="280" width="80" height="80" as="geometry" />
        </mxCell>
        <mxCell id="EW6EBJcZt1dbtNgd9fTZ-6" value="line()" style="rhombus;whiteSpace=wrap;html=1;rounded=1;strokeColor=#028090;fontColor=#E4FDE1;fillColor=#F45B69;labelBackgroundColor=none;" parent="1" vertex="1">
          <mxGeometry x="185" y="280" width="80" height="80" as="geometry" />
        </mxCell>
        <mxCell id="EW6EBJcZt1dbtNgd9fTZ-18" value="&lt;p style=&quot;line-height: 120%;&quot;&gt;Filteration&lt;/p&gt;" style="text;html=1;align=center;verticalAlign=middle;resizable=0;points=[];autosize=1;strokeColor=none;fillColor=none;fontColor=#E4FDE1;labelBackgroundColor=none;rounded=1;" parent="1" vertex="1">
          <mxGeometry x="195" y="205" width="80" height="50" as="geometry" />
        </mxCell>
        <mxCell id="EW6EBJcZt1dbtNgd9fTZ-21" value="header" style="swimlane;horizontal=0;whiteSpace=wrap;html=1;rounded=1;strokeColor=#028090;fontColor=#E4FDE1;fillColor=#F45B69;labelBackgroundColor=none;" parent="1" vertex="1">
          <mxGeometry x="10" y="440" width="170" height="210" as="geometry" />
        </mxCell>
        <mxCell id="EW6EBJcZt1dbtNgd9fTZ-22" value="shape" style="whiteSpace=wrap;html=1;rounded=1;strokeColor=#028090;fontColor=#E4FDE1;fillColor=#F45B69;labelBackgroundColor=none;" parent="EW6EBJcZt1dbtNgd9fTZ-21" vertex="1">
          <mxGeometry x="40" y="11" width="120" height="40" as="geometry" />
        </mxCell>
        <mxCell id="EW6EBJcZt1dbtNgd9fTZ-25" value="style" style="whiteSpace=wrap;html=1;rounded=1;strokeColor=#028090;fontColor=#E4FDE1;fillColor=#F45B69;labelBackgroundColor=none;" parent="EW6EBJcZt1dbtNgd9fTZ-21" vertex="1">
          <mxGeometry x="40" y="61" width="120" height="40" as="geometry" />
        </mxCell>
        <mxCell id="EW6EBJcZt1dbtNgd9fTZ-26" value="opt" style="whiteSpace=wrap;html=1;rounded=1;strokeColor=#028090;fontColor=#E4FDE1;fillColor=#F45B69;labelBackgroundColor=none;" parent="EW6EBJcZt1dbtNgd9fTZ-21" vertex="1">
          <mxGeometry x="40" y="111" width="120" height="40" as="geometry" />
        </mxCell>
        <mxCell id="EW6EBJcZt1dbtNgd9fTZ-27" value="line" style="whiteSpace=wrap;html=1;rounded=1;strokeColor=#028090;fontColor=#E4FDE1;fillColor=#F45B69;labelBackgroundColor=none;" parent="1" vertex="1">
          <mxGeometry x="50" y="601" width="120" height="40" as="geometry" />
        </mxCell>
      </root>
    </mxGraphModel>
  </diagram>
</mxfile>
